<svg xmlns="http://www.w3.org/2000/svg">
  <defs>
    <symbol id="coupon" viewBox="0 0 24 24">
      <path
        fill-rule="evenodd"
        d="M5.32129,11 L16,11 L16,2 L5.32129,2 L5.32129,3.125 L3.32129,3.125 L3.32129,2 L2,2 L2,11 L3.32129,11 L3.32129,9.875 L5.32129,9.875 L5.32129,11 Z M18,1 C18,0.447715 17.5523,0 17,0 L1,0 C0.447716,0 0,0.447715 0,1 L0,12 C0,12.5523 0.447716,13 1,13 L17,13 C17.5523,13 18,12.5523 18,12 L18,1 Z M3.32129,5.375 L3.32129,6.5 L3.32129,7.625 L5.32129,7.625 L5.32129,6.5 L5.32129,5.375 L3.32129,5.375 Z"
        transform="translate(3 6)"
      />
    </symbol>
    <symbol id="coupon-filled" viewBox="0 0 24 24">
      <path
        fill-rule="evenodd"
        d="M17,0 C17.5523,0 18,0.447715 18,1 L18,12 C18,12.5523 17.5523,13 17,13 L5.32129,13 L5.32129,11.375 L3.32129,11.375 L3.32129,13 L1,13 C0.447714,13 0,12.5523 0,12 L0,1 C0,0.447715 0.447716,0 1,0 L3.32129,0 L3.32129,1.625 L5.32129,1.625 L5.32129,0 L17,0 Z M3.32129,4.875 L3.32129,8.125 L5.32129,8.125 L5.32129,4.875 L3.32129,4.875 Z"
        transform="translate(3 6)"
      />
    </symbol>
    <symbol id="place" viewBox="0 0 24 24">
      <path
        d="M8.3333,10.41667 C7.1875,10.41667 6.25,9.47917 6.25,8.33337 C6.25,7.1875 7.1875,6.25 8.3333,6.25 C9.4792,6.25 10.4167,7.1875 10.4167,8.33337 C10.4167,9.47917 9.4792,10.41667 8.3333,10.41667 Z M14.5833,8.54167 C14.5833,4.76042 11.8229,2.08333 8.3333,2.08333 C4.84375,2.08333 2.08334,4.76042 2.08334,8.54167 C2.08334,10.97917 4.11459,14.20837 8.3333,18.06247 C12.5521,14.20837 14.5833,10.97917 14.5833,8.54167 Z M8.3333,4.4408921e-16 C12.7083,4.4408921e-16 16.6667,3.35417 16.6667,8.54167 C16.6667,11.99997 13.8854,16.09377 8.3333,20.83337 C2.78125,16.09377 8.8817842e-16,11.99997 8.8817842e-16,8.54167 C8.8817842e-16,3.35417 3.95834,4.4408921e-16 8.3333,4.4408921e-16 Z"
        transform="translate(4 2)"
      />
    </symbol>
    <symbol id="place-filled" viewBox="0 0 24 24">
      <path
        fill-rule="evenodd"
        d="M16.666708,8.5416625 C16.666708,3.3541625 12.708308,0 8.333338,0 C3.958338,0 -4.71844785e-16,3.3541625 -4.71844785e-16,8.5416625 C-4.71844785e-16,11.9999625 2.781248,16.0937625 8.333338,20.8333625 C13.885408,16.0937625 16.666708,11.9999625 16.666708,8.5416625 Z M8.550778,10.9062625 C9.931508,10.9062625 11.050808,9.7869625 11.050808,8.4062525 C11.050808,7.0255425 9.931508,5.9062525 8.550778,5.9062525 C7.170068,5.9062525 6.050778,7.0255425 6.050778,8.4062525 C6.050778,9.7869625 7.170068,10.9062625 8.550778,10.9062625 Z"
        transform="translate(4 2)"
      />
    </symbol>
    <symbol id="receipt" viewBox="0 0 24 24">
      <path
        d="M17.875,1.4375 L16.25,-4.4408921e-16 L14.625,1.4375 L13,-4.4408921e-16 L11.375,1.4375 L9.75,-4.4408921e-16 L8.125,1.4375 L6.5,-4.4408921e-16 L4.875,1.4375 L3.25,-4.4408921e-16 L1.625,1.4375 L0,-4.4408921e-16 L0,19.16663 L1.625,17.72913 L3.25,19.16663 L4.875,17.72913 L6.5,19.16663 L8.125,17.72913 L9.75,19.16663 L11.375,17.72913 L13,19.16663 L14.625,17.72913 L16.25,19.16663 L17.875,17.72913 L19.5,19.16663 L19.5,-4.4408921e-16 L17.875,1.4375 Z M17.3333,16.37793 L2.16667,16.37793 L2.16667,2.78875 L17.3333,2.78875 L17.3333,16.37793 Z M3.25,12.45833 L16.25,12.45833 L16.25,14.37503 L3.25,14.37503 L3.25,12.45833 Z M3.25,8.62503 L16.25,8.62503 L16.25,10.54163 L3.25,10.54163 L3.25,8.62503 Z M3.25,4.79167 L16.25,4.79167 L16.25,6.70833 L3.25,6.70833 L3.25,4.79167 Z"
        transform="translate(2 2)"
      />
    </symbol>
    <symbol id="receipt-filled" viewBox="0 0 24 24">
      <path
        d="M17.875,1.4375 L16.25,-4.4408921e-16 L14.625,1.4375 L13,-4.4408921e-16 L11.375,1.4375 L9.75,-4.4408921e-16 L8.125,1.4375 L6.5,-4.4408921e-16 L4.875,1.4375 L3.25,-4.4408921e-16 L1.625,1.4375 L0,-4.4408921e-16 L0,19.16663 L1.625,17.72913 L3.25,19.16663 L4.875,17.72913 L6.5,19.16663 L8.125,17.72913 L9.75,19.16663 L11.375,17.72913 L13,19.16663 L14.625,17.72913 L16.25,19.16663 L17.875,17.72913 L19.5,19.16663 L19.5,-4.4408921e-16 L17.875,1.4375 Z M3.25,12.45833 L16.25,12.45833 L16.25,14.37503 L3.25,14.37503 L3.25,12.45833 Z M3.25,8.62503 L16.25,8.62503 L16.25,10.54163 L3.25,10.54163 L3.25,8.62503 Z M3.25,4.79167 L16.25,4.79167 L16.25,6.70833 L3.25,6.70833 L3.25,4.79167 Z"
        transform="translate(2 2)"
      />
    </symbol>
    <symbol id="kotozna" viewBox="0 0 24 24">
      <path
        d="M10.8218254,16.5834082 C10.774122,16.6079823 10.7502703,16.6161737 10.7184681,16.6407479 C10.4560997,16.8127669 10.1857808,16.9438291 9.85980794,16.9274463 C9.61334066,16.9110636 9.41457674,16.7963842 9.24761504,16.6161737 C9.18401058,16.5424512 9.11245556,16.4687288 9.07270278,16.3868149 C9.00114776,16.2557527 8.94549386,16.1164992 8.89779052,15.9690543 C8.77058161,15.559485 8.74672994,15.1335329 8.77058161,14.6993895 C8.78648272,14.519179 8.81033439,14.3389686 8.81828495,14.1505667 C8.81828495,14.1014184 8.80238384,14.0440787 8.79443328,13.9949304 C8.73877938,14.0031218 8.66722436,14.0031218 8.61952102,14.0358873 C8.28559762,14.2160978 7.94372366,14.3553513 7.57799803,14.4372652 C7.34743188,14.4864135 7.10891516,14.5027963 6.87039845,14.5027963 C6.67163452,14.5027963 6.46492003,14.4700307 6.27410666,14.3881169 C5.99583716,14.2570547 5.79707323,14.0522701 5.71756766,13.732806 C5.6539632,13.4624903 5.68576543,13.1921746 5.765271,12.9300503 C5.83682602,12.6761173 5.94018326,12.4385671 6.08329329,12.2255911 C6.2105022,12.0289979 6.35361223,11.8487874 6.49672226,11.6685769 C6.6000795,11.5375147 6.7113873,11.4228354 6.81474455,11.2999646 C6.86244789,11.2426249 6.85449733,11.1852852 6.78294232,11.1525196 C6.74318953,11.1361369 6.69548619,11.1279455 6.6557334,11.1197541 C6.44106836,11.0706058 6.21845276,11.0378402 6.01173828,10.9805005 C5.73346878,10.8985867 5.46314983,10.7920987 5.21668256,10.6364624 C4.96226473,10.4726346 4.72374802,10.2842328 4.57268743,10.0139171 C4.49318186,9.8828549 4.45342907,9.73540996 4.44547852,9.57158225 C4.42162685,9.14563021 4.62039077,8.83435756 4.9304625,8.57223323 C5.21668256,8.32649167 5.5426554,8.16266396 5.89247992,8.04798457 C6.13894719,7.96607071 6.40131558,7.93330517 6.6557334,7.87596547 C6.72728842,7.8595827 6.81474455,7.8595827 6.84654678,7.77766885 C6.878349,7.69575499 6.79884343,7.66298945 6.75909065,7.61384114 C6.58417839,7.40086512 6.40131558,7.20427187 6.23435388,6.98310446 C5.97993605,6.63906628 5.78912268,6.26226255 5.7096171,5.83631051 C5.66986432,5.63971726 5.66191376,5.44312401 5.70166655,5.25472214 C5.77322156,4.96802365 5.9322327,4.74685625 6.20255165,4.6076027 C6.48082115,4.46015776 6.78294232,4.44377499 7.07711293,4.46834914 C7.33948132,4.4929233 7.60184971,4.550263 7.85626753,4.62398547 C8.05503146,4.68132516 8.24584483,4.77962179 8.43665821,4.85334426 C8.50821322,4.8861098 8.57976824,4.92706673 8.65132325,4.95983227 C8.77853216,5.01717197 8.82623551,4.95164088 8.81828495,4.85334426 C8.81033439,4.73866486 8.79443328,4.62398547 8.77853216,4.50930607 C8.75468049,4.25537312 8.73877938,4.00144018 8.74672994,3.74750723 C8.75468049,3.51814844 8.78648272,3.29698103 8.83418606,3.07581362 C8.88983996,2.83007206 8.98524665,2.60071327 9.13630724,2.40412002 C9.32712061,2.15018707 9.58153844,2.00274214 9.90751128,2.01912491 C10.1380774,2.02731629 10.3447919,2.10103876 10.5356053,2.21571816 C10.9013309,2.42869418 11.1796004,2.73996682 11.4181171,3.08400501 C11.5771283,3.3133638 11.7122878,3.55091398 11.8394967,3.79665554 C11.8553978,3.83761247 11.9031011,3.87856939 11.9428539,3.88676078 C11.9826067,3.88676078 12.03031,3.84580385 12.0541617,3.80484693 C12.1813706,3.5918709 12.2926784,3.3707035 12.4198873,3.15772748 C12.5947996,2.87102899 12.8174152,2.61709604 13.071833,2.39592864 C13.2626464,2.22390954 13.485262,2.09284738 13.7317293,2.03550768 C13.9384438,1.98635937 14.1531088,1.97816798 14.3598233,2.0764646 C14.669895,2.21571816 14.8448073,2.46145972 14.9720162,2.76454098 C15.0912745,3.05123947 15.1389779,3.35432073 15.1628296,3.65740199 C15.1866812,4.00144018 15.1707801,4.33728698 15.1310273,4.68132516 C15.1230768,4.74685625 15.1151262,4.82057872 15.1230768,4.8861098 C15.1310273,4.96802365 15.1787307,4.98440642 15.2502857,4.95164088 C15.3059396,4.92706673 15.3536429,4.90249257 15.4092968,4.87791841 C15.7352697,4.68951655 16.0930447,4.56664577 16.4587704,4.48473191 C16.7211388,4.42739222 16.9835071,4.41100945 17.2538261,4.4355836 C17.5002934,4.46015776 17.722909,4.53388023 17.9137223,4.68132516 C18.1045357,4.82057872 18.2078929,5.02536335 18.2476457,5.25472214 C18.3032996,5.59876033 18.2237941,5.92641575 18.0965851,6.24587978 C17.9773268,6.53257827 17.8342168,6.7947026 17.6434034,7.04044416 C17.5082439,7.22065464 17.3571833,7.38448235 17.2140733,7.55650144 C17.1902216,7.5810756 17.16637,7.59745837 17.1425183,7.62203252 C17.0789138,7.69575499 17.1027655,7.77766885 17.1902216,7.802243 C17.2458755,7.81862577 17.3015294,7.81862577 17.3492328,7.83500854 C17.5957,7.89234824 17.8421673,7.93330517 18.080684,8.01521902 C18.4702613,8.14628119 18.8439375,8.31830028 19.1540092,8.62138154 C19.4004765,8.86712311 19.5753888,9.16201298 19.535636,9.53881671 C19.5117843,9.75179273 19.4322787,9.93200321 19.3050698,10.1040223 C19.1540092,10.2924242 18.979097,10.4480605 18.7803331,10.5791227 C18.6610747,10.6610365 18.5259152,10.7265676 18.3907558,10.7757159 C18.1681402,10.8576298 17.9455246,10.9313522 17.7149584,11.0050747 C17.5638978,11.0460316 17.3969361,11.0706058 17.2458755,11.1033713 C17.1981722,11.1115627 17.1345677,11.1443282 17.1186666,11.1852852 C17.1027655,11.2180507 17.1504688,11.2753904 17.1743205,11.3245387 C17.1902216,11.3491129 17.2140733,11.3654957 17.2299744,11.3900698 C17.4684911,11.62762 17.6752056,11.8979357 17.8580684,12.1928256 C18.0329807,12.4713327 18.1760907,12.7662226 18.2396952,13.0856866 C18.3032996,13.3969592 18.3112502,13.7246147 18.1283874,14.0031218 C18.0250301,14.1669495 17.8739695,14.2898202 17.6911067,14.3717341 C17.3412822,14.5273704 16.9755566,14.5273704 16.609831,14.4618393 C16.3077098,14.412691 16.0135392,14.3471599 15.7432202,14.2079064 C15.5921596,14.1341839 15.4410991,14.0686528 15.2820879,14.0031218 C15.2502857,13.986739 15.1946318,13.9785476 15.1628296,13.9949304 C15.1389779,14.0113131 15.1310273,14.0686528 15.1310273,14.1014184 C15.1469284,14.4700307 15.1787307,14.8468345 15.1787307,15.2154468 C15.1787307,15.3874659 15.1389779,15.5512936 15.1151262,15.7233127 C15.0992251,15.8216093 15.083324,15.9280973 15.0515218,16.026394 C14.9799667,16.2229872 14.9084117,16.4277718 14.7573511,16.5752168 C14.6619445,16.665322 14.5744883,16.77181 14.4711311,16.8291497 C14.1690099,16.984786 13.8668887,16.9684033 13.556817,16.8291497 C13.2944486,16.7144703 13.0797836,16.5342598 12.8651185,16.345858 C12.857168,16.3376666 12.8412669,16.3294752 12.8174152,16.3130924 C12.8094646,16.4113891 12.8015141,16.5014943 12.7935635,16.5915995 C12.7935635,16.7636186 12.7538107,16.9438291 12.785613,17.1158482 C12.8015141,17.2141448 12.8015141,17.3206328 12.8015141,17.4271209 C12.8015141,17.5090347 12.857168,17.5172261 12.9128219,17.5090347 C13.0161791,17.4844606 13.1195364,17.4435036 13.2228936,17.4107381 C13.2785475,17.3943553 13.342152,17.3861639 13.4057564,17.3697812 C13.5727181,17.3370156 13.7396798,17.3042501 13.9066415,17.2796759 C14.1451582,17.2469104 14.383675,17.2223362 14.6221917,17.2141448 C15.0038184,17.1895707 15.3774946,17.1977621 15.7591213,17.2469104 C16.0453414,17.2878673 16.3315615,17.3124415 16.609831,17.3779725 C16.8881005,17.4353122 17.1504688,17.5254175 17.4207878,17.6073313 C17.5797989,17.6564796 17.7388101,17.7138193 17.8898707,17.7793504 C18.0250301,17.8366901 18.152239,17.9022212 18.2873985,17.9677523 C18.5418163,18.0988145 18.7882836,18.2216852 19.0347509,18.3609388 C19.2176137,18.4674268 19.392526,18.5902976 19.5594877,18.7295511 C19.6866966,18.8278478 19.7900538,18.9507185 19.8934111,19.0735893 C19.9888177,19.1800773 19.9888177,19.3275223 19.9967683,19.4585844 C20.02062,19.6715605 19.9093122,19.8271968 19.7662021,19.9664503 C19.6866966,20.0483642 19.5912899,20.1057039 19.4879326,20.1466608 C19.3845754,20.1876177 19.2971193,20.2613402 19.193762,20.3186799 C19.0904048,20.3760196 18.9870475,20.4415507 18.8836903,20.4988904 C18.7246792,20.5889956 18.5736186,20.6791009 18.4146074,20.7610147 C18.3032996,20.8183544 18.1840413,20.8756941 18.0727335,20.9412252 C17.937574,21.0149477 17.8103651,21.0968615 17.6752056,21.1623926 C17.4366889,21.277072 17.2220239,21.4408997 16.9517049,21.4736652 C16.8085949,21.490048 16.6734354,21.4572825 16.5541771,21.3753686 C16.3792648,21.2606892 16.267957,21.0886701 16.2043525,20.8920769 C16.1407481,20.6791009 16.2043525,20.4743162 16.3156603,20.2859144 C16.4269681,20.0975125 16.5700782,19.9500676 16.7211388,19.8026226 C16.8165454,19.7125174 16.824496,19.6306035 16.7131882,19.5650724 C16.5621276,19.4667758 16.4031165,19.384862 16.2441053,19.3111395 C16.1009953,19.2456084 15.9499347,19.1800773 15.7988741,19.130929 C15.5365057,19.0572066 15.2661868,18.9916755 14.9958679,18.9425272 C14.7812028,18.9015702 14.5665378,18.8933788 14.3518727,18.8769961 C14.256466,18.8688047 14.1610594,18.8769961 14.0656527,18.8851875 C13.9066415,18.8933788 13.7396798,18.9015702 13.5806687,18.9261444 C13.4216575,18.9507185 13.2626464,19.0080582 13.1036353,19.0490152 C13.0320802,19.0653979 12.9525747,19.0899721 12.8889702,19.1145462 C12.8730691,19.1227376 12.8492174,19.1636946 12.857168,19.1964601 C12.8810197,19.4094361 12.9048713,19.6142208 12.928723,19.8271968 C12.9525747,19.9828331 12.9684758,20.1466608 13.000278,20.3022971 C13.0241297,20.4497421 13.071833,20.597187 13.1036353,20.7446319 C13.143388,20.916651 13.1513386,21.0886701 13.0956847,21.2606892 C13.0559319,21.3917514 13.0082286,21.5146222 12.928723,21.6211102 C12.7776624,21.8258948 12.5788985,21.9487656 12.3244807,21.9897225 C12.0223595,22.0306795 11.7520405,21.9487656 11.5294249,21.7521723 C11.3863149,21.6293016 11.2750071,21.4654739 11.2352543,21.2688806 C11.2034521,21.0968615 11.1398476,20.9330338 11.1080454,20.7610147 C11.0682926,20.5644215 11.0364904,20.3596368 10.9967376,20.1630436 C10.9808365,20.0975125 10.9728859,20.02379 10.9490343,19.9582589 C10.9331332,19.8927279 10.8854298,19.8845365 10.8218254,19.9009192 C10.6151109,19.9582589 10.4004458,20.0074073 10.1857808,20.0319814 C10.0108685,20.0483642 9.84390682,20.0975125 9.66899456,20.1220867 C9.51793398,20.1384694 9.35892284,20.1384694 9.19991169,20.1384694 C8.96934554,20.1384694 8.73877938,20.1384694 8.51616378,20.1220867 C8.26174595,20.1057039 8.01527868,20.0729383 7.76881141,20.0401728 C7.60184971,20.0155986 7.42693745,19.9910245 7.26792631,19.9500676 C7.04531071,19.8927279 6.8226951,19.8190054 6.60803006,19.7534743 C6.46492003,19.7125174 6.32181,19.6633691 6.18665053,19.6142208 C6.07534273,19.5732638 5.97993605,19.5159241 5.86862825,19.4667758 C5.78117212,19.4258189 5.69371599,19.384862 5.60625986,19.343905 C5.57445763,19.3275223 5.5426554,19.3111395 5.51085318,19.2947567 C5.39954537,19.237417 5.28823757,19.1964601 5.18488033,19.130929 C5.06562197,19.0653979 4.95431417,18.9998669 4.84300637,18.9261444 C4.7078469,18.8360391 4.57268743,18.7541253 4.44547852,18.6476373 C4.27851682,18.5083837 4.11155512,18.3609388 4.0400001,18.1397714 C3.99229676,17.9841351 3.9843462,17.8284987 4.03204955,17.6728624 C4.095654,17.4926519 4.22286292,17.3697812 4.38982462,17.2796759 C4.50908297,17.2141448 4.62039077,17.1404224 4.73169857,17.0748913 C4.77940192,17.0503171 4.83505582,17.0339344 4.88275916,17.0011688 C5.05767142,16.9028722 5.22463312,16.7963842 5.39954537,16.6980876 C5.63806209,16.5670254 5.8765788,16.4359632 6.11509552,16.3049011 C6.36156279,16.1738389 6.6000795,16.0427767 6.85449733,15.9280973 C7.15661851,15.7970352 7.41103633,15.8625662 7.63365193,16.1246906 C7.76881141,16.2885183 7.82446531,16.4605374 7.81651475,16.665322 C7.81651475,16.7472359 7.77676196,16.8373411 7.74495973,16.919255 C7.66545416,17.132231 7.50644302,17.2878673 7.36333299,17.451695 C7.33153076,17.4926519 7.29177798,17.5172261 7.25997575,17.558183 C7.19637129,17.6237141 7.20432185,17.705628 7.28382742,17.7547763 C7.47464079,17.8612643 7.66545416,17.9759437 7.87216865,18.0660489 C8.05503146,18.1479628 8.25379539,18.2053025 8.44460876,18.2626422 C8.72287826,18.344556 9.00114776,18.4100871 9.28736782,18.4100871 C9.39867562,18.4100871 9.50998342,18.4346613 9.61334066,18.4346613 C9.82005515,18.4346613 10.0267696,18.4264699 10.2255336,18.4018957 C10.4083964,18.3773216 10.5912592,18.3363646 10.7661715,18.2954077 C10.7979737,18.2872163 10.8297759,18.238068 10.8297759,18.2053025 C10.8377265,17.9349867 10.8297759,17.6728624 10.8297759,17.4025467 C10.8297759,17.1813793 10.845677,16.9684033 10.845677,16.7472359 C10.8297759,16.6817048 10.8218254,16.6407479 10.8218254,16.5834082 L10.8218254,16.5834082 Z M11.7599911,12.2501653 C11.7599911,12.2419739 11.7599911,12.2337825 11.7599911,12.2255911 L11.9031011,12.2255911 C12.1972717,12.1928256 12.4834918,12.1436773 12.7617613,12.053572 C13.0161791,11.9634668 13.270597,11.8569788 13.5011631,11.7177252 C13.7396798,11.5702803 13.9622954,11.3982612 14.1610594,11.2016679 C14.3200705,11.0378402 14.4711311,10.8658211 14.6142411,10.6856107 C14.6778456,10.6118882 14.7175984,10.5299743 14.7653017,10.4480605 C14.8527578,10.2924242 14.940214,10.1449792 15.0197195,9.98934291 C15.0992251,9.83370658 15.0594723,9.70264442 14.9084117,9.54700809 C14.8527578,9.4896684 14.6539939,9.47328563 14.5585872,9.52243394 C14.5029333,9.55519948 14.4393289,9.57977364 14.3995761,9.63711333 C14.3359716,9.72721857 14.3041694,9.83370658 14.2485155,9.92381182 C14.0974549,10.161362 13.9384438,10.3907208 13.7237787,10.5791227 C13.5727181,10.7019934 13.4296081,10.8330556 13.2864981,10.9641178 C13.2387947,11.0050747 13.1831408,11.0296489 13.1274869,11.0624144 C13.0241297,11.1197541 12.9207724,11.1934766 12.8094646,11.2426249 C12.7220085,11.2835818 12.6266018,11.2917732 12.5391457,11.3327301 C12.372184,11.4064526 12.2052223,11.4474095 12.03031,11.4556009 C11.8553978,11.4719837 11.6804855,11.4801751 11.5055733,11.4801751 C11.1000949,11.4801751 10.7184681,11.3818784 10.3447919,11.2180507 C10.2255336,11.1689024 10.1221763,11.0951799 9.97906629,11.0951799 C9.82800571,11.0951799 9.66104401,11.2098593 9.62129122,11.373687 C9.57358788,11.5620889 9.70079679,11.7422994 9.84390682,11.8160219 C9.92341239,11.8569788 9.99496741,11.8897443 10.074473,11.9225099 C10.2255336,11.9798496 10.3845447,12.0453806 10.5356053,12.094529 C10.702567,12.1436773 10.8695287,12.1682514 11.0364904,12.1928256 C11.2829577,12.2092084 11.5214744,12.2255911 11.7599911,12.2501653 L11.7599911,12.2501653 Z M13.143388,8.18723812 C13.7396798,8.22000366 14.2087627,7.69575499 14.1769605,7.05682693 C14.1531088,6.58991796 13.7396798,6.08205207 13.1354375,6.10662622 C12.5788985,6.123009 12.1416178,6.60630073 12.1495684,7.17969771 C12.1495684,7.73671192 12.6107007,8.22000366 13.143388,8.18723812 Z M10.702567,8.33468305 C10.7184681,7.82681716 10.3129897,7.29437711 9.71669791,7.28618572 C9.23966448,7.27799434 8.67517492,7.67118084 8.69107604,8.33468305 C8.69902659,8.85893172 9.06475222,9.35860623 9.69284624,9.35860623 C10.1937313,9.36679762 10.6787153,9.00637666 10.702567,8.33468305 Z" />
    </symbol>
    <symbol id="menu" viewBox="0 0 24 24">
      <path
        d="M4.2,17.4 L20.4,17.4 L20.4,15.6 L4.2,15.6 L4.2,17.4 Z M4.2,12.9 L20.4,12.9 L20.4,11.1 L4.2,11.1 L4.2,12.9 Z M4.2,6.6 L4.2,8.4 L20.4,8.4 L20.4,6.6 L4.2,6.6 Z" />
    </symbol>
    <symbol id="user" viewBox="0 0 24 24">
      <path
        d="M12,4A4,4 0 0,1 16,8A4,4 0 0,1 12,12A4,4 0 0,1 8,8A4,4 0 0,1 12,4M12,14C16.42,14 20,15.79 20,18V20H4V18C4,15.79 7.58,14 12,14Z"
      />
    </symbol>
    <symbol id="world" viewBox="0 0 24 24">
      <path
        d="M16.36,14C16.44,13.34 16.5,12.68 16.5,12C16.5,11.32 16.44,10.66 16.36,10H19.74C19.9,10.64 20,11.31 20,12C20,12.69 19.9,13.36 19.74,14M14.59,19.56C15.19,18.45 15.65,17.25 15.97,16H18.92C17.96,17.65 16.43,18.93 14.59,19.56M14.34,14H9.66C9.56,13.34 9.5,12.68 9.5,12C9.5,11.32 9.56,10.65 9.66,10H14.34C14.43,10.65 14.5,11.32 14.5,12C14.5,12.68 14.43,13.34 14.34,14M12,19.96C11.17,18.76 10.5,17.43 10.09,16H13.91C13.5,17.43 12.83,18.76 12,19.96M8,8H5.08C6.03,6.34 7.57,5.06 9.4,4.44C8.8,5.55 8.35,6.75 8,8M5.08,16H8C8.35,17.25 8.8,18.45 9.4,19.56C7.57,18.93 6.03,17.65 5.08,16M4.26,14C4.1,13.36 4,12.69 4,12C4,11.31 4.1,10.64 4.26,10H7.64C7.56,10.66 7.5,11.32 7.5,12C7.5,12.68 7.56,13.34 7.64,14M12,4.03C12.83,5.23 13.5,6.57 13.91,8H10.09C10.5,6.57 11.17,5.23 12,4.03M18.92,8H15.97C15.65,6.75 15.19,5.55 14.59,4.44C16.43,5.07 17.96,6.34 18.92,8M12,2C6.47,2 2,6.5 2,12A10,10 0 0,0 12,22A10,10 0 0,0 22,12A10,10 0 0,0 12,2Z"
      />
    </symbol>
    <symbol id="logout" viewBox="0 0 24 24">
      <path
        d="M14.08,15.59L16.67,13H7V11H16.67L14.08,8.41L15.5,7L20.5,12L15.5,17L14.08,15.59M19,3A2,2 0 0,1 21,5V9.67L19,7.67V5H5V19H19V16.33L21,14.33V19A2,2 0 0,1 19,21H5C3.89,21 3,20.1 3,19V5C3,3.89 3.89,3 5,3H19Z"
      />
    </symbol>
    <symbol id="qr" viewBox="0 0 24 24">
      <g fill-rule="evenodd">
        <path fill-rule="nonzero"
          d="M3 10.99998 11.4 10.99998 11.4 3 3 3 3 10.99998ZM5.10000315 4.999998 9.30001575 4.999998 9.30001575 8.999998 5.10000315 8.999998 5.10000315 4.999998ZM3 20.99958 10.99998 20.99958 10.99998 12.9996 3 12.9996 3 20.99958ZM4.999998 14.99958 8.999998 14.99958 8.999998 18.9996 4.999998 18.9996 4.999998 14.99958ZM13.00002 3 13.00002 10.99998 21.00006 10.99998 21.00006 3 13.00002 3ZM19.00002 8.999998 15.00006 8.999998 15.00006 4.999998 19.00002 4.999998 19.00002 8.999998Z" />
        <polygon fill-rule="nonzero" points="21 19 19 19 19 21 21 21" />
        <polygon fill-rule="nonzero" points="15 13 13 13 13 15 15 15" />
        <polygon fill-rule="nonzero" points="17 15 15 15 15 17 17 17" />
        <polygon fill-rule="nonzero" points="15 17 13 17 13 19 15 19" />
        <polygon fill-rule="nonzero" points="17 19 15 19 15 21 17 21" />
        <polygon fill-rule="nonzero" points="19 17 17 17 17 19 19 19" />
        <polygon fill-rule="nonzero" points="19 13 17 13 17 15 19 15" />
        <polygon fill-rule="nonzero" points="21 15 19 15 19 17 21 17" />
      </g>
    </symbol>
    <symbol id="name" viewBox="0 0 24 24">
    </symbol>
    <symbol id="add" viewBox="0 0 14 14">
      <path d="M14 8H8V14H6V8H0V6H6V0H8V6H14V8Z" />
    </symbol>
    <symbol id="sort" viewBox="0 0 6 12" fill="none">
      <path d="M0.232826 8.98096L2.26677 11.3661C2.57304 11.7252 3.06778 11.7252 3.37405 11.3661L5.408 8.98096C5.90274 8.40081 5.54935 7.40625 4.85043 7.40625H0.782541C0.0836173 7.40625 -0.261918 8.40081 0.232826 8.98096Z" fill="#212121"/>
      <path d="M5.40609 3.01513L3.37215 0.630036C3.06588 0.270891 2.57113 0.270891 2.26486 0.630036L0.230918 3.01513C-0.263826 3.59529 0.0895623 4.58984 0.788485 4.58984L4.85638 4.58984C5.5553 4.58984 5.90083 3.59529 5.40609 3.01513Z" fill="#212121"/>
    </symbol>
    <symbol id="close" viewBox="0 0 19 19">
      <path
        d="M17.9386 0.442266C17.4061 -0.0901567 16.5461 -0.0901567 16.0137 0.442266L9.33789 7.10438L2.66212 0.428614C2.1297 -0.103809 1.26963 -0.103809 0.737208 0.428614C0.204785 0.961037 0.204785 1.82111 0.737208 2.35353L7.41298 9.0293L0.737208 15.7051C0.204785 16.2375 0.204785 17.0976 0.737208 17.63C1.26963 18.1624 2.1297 18.1624 2.66212 17.63L9.33789 10.9542L16.0137 17.63C16.5461 18.1624 17.4061 18.1624 17.9386 17.63C18.471 17.0976 18.471 16.2375 17.9386 15.7051L11.2628 9.0293L17.9386 2.35353C18.4573 1.83476 18.4573 0.961038 17.9386 0.442266V0.442266Z"
      />
    </symbol>
    <symbol id="arrow_right" viewBox="0 0 24 24">
      <path d="M0 0h24v24H0V0z" fill="none" />
      <path d="M8.59 16.59L13.17 12 8.59 7.41 10 6l6 6-6 6-1.41-1.41z" />
    </symbol>
    <symbol id="arrow_left" viewBox="0 0 24 24">
      <path d="M0 0h24v24H0V0z" fill="none" />
      <path d="M15.41 16.59L10.83 12l4.58-4.59L14 6l-6 6 6 6 1.41-1.41z" />
    </symbol>
    <symbol id="arrow_right_double" viewBox="0 0 24 24">
      <g>
        <rect fill="none" height="24" width="24" />
      </g>
      <g>
        <g>
          <polygon points="6.41,6 5,7.41 9.58,12 5,16.59 6.41,18 12.41,12" />
          <polygon points="13,6 11.59,7.41 16.17,12 11.59,16.59 13,18 19,12" />
        </g>
      </g>
    </symbol>
    <symbol id="arrow_left_double" viewBox="0 0 24 24">
      <g>
        <rect fill="none" height="24" width="24" />
      </g>
      <g>
        <g>
          <polygon points="17.59,18 19,16.59 14.42,12 19,7.41 17.59,6 11.59,12" />
          <polygon points="11,18 12.41,16.59 7.83,12 12.41,7.41 11,6 5,12" />
        </g>
      </g>
    </symbol>
    <symbol id="pencil" viewBox="0 0 21 21">
      <path
        d="M0.375 16.6434V20.0634C0.375 20.3784 0.6225 20.6259 0.9375 20.6259H4.3575C4.50375 20.6259 4.65 20.5696 4.75125 20.4571L17.0362 8.18336L12.8175 3.96461L0.54375 16.2384C0.43125 16.3509 0.375 16.4859 0.375 16.6434ZM20.2987 4.92086C20.7375 4.48211 20.7375 3.77336 20.2987 3.33461L17.6663 0.702109C17.2275 0.263359 16.5187 0.263359 16.08 0.702109L14.0212 2.76086L18.24 6.97961L20.2987 4.92086Z"
      />
    </symbol>
    <symbol id="options" viewBox="0 0 24 24">
      <path
        d="M15 11.9004C15 10.5196 13.8808 9.40039 12.5 9.40039C11.1192 9.40039 10 10.5196 10 11.9004C10 13.2812 11.1192 14.4004 12.5 14.4004C13.8808 14.4004 15 13.2812 15 11.9004Z"
        fill="#B0BAC9" />
      <path
        d="M15 2.5C15 1.11917 13.8808 9.53674e-07 12.5 9.53674e-07C11.1192 9.53674e-07 10 1.11917 10 2.5C10 3.88083 11.1192 5 12.5 5C13.8808 5 15 3.88083 15 2.5Z"
        fill="#B0BAC9" />
      <path
        d="M15 20.9004C15 19.5196 13.8808 18.4004 12.5 18.4004C11.1192 18.4004 10 19.5196 10 20.9004C10 22.2812 11.1192 23.4004 12.5 23.4004C13.8808 23.4004 15 22.2812 15 20.9004Z"
        fill="#B0BAC9" />
    </symbol>
    <symbol id="clipboard" viewBox="0 0 14 16">
      <path
        d="M11.768 13.8176H4.65688V4.76778H11.768V13.8176ZM11.768 3.47445H4.65688C4.31387 3.47445 3.9849 3.61071 3.74236 3.85326C3.49981 4.09581 3.36355 4.42477 3.36355 4.76778V13.8176C3.36355 14.1606 3.49981 14.4895 3.74236 14.7321C3.9849 14.9746 4.31387 15.1109 4.65688 15.1109H11.768C12.111 15.1109 12.44 14.9746 12.6825 14.7321C12.9251 14.4895 13.0613 14.1606 13.0613 13.8176V4.76778C13.0613 4.42477 12.9251 4.09581 12.6825 3.85326C12.44 3.61071 12.111 3.47445 11.768 3.47445V3.47445ZM9.82844 0.888672H2.0711C1.72809 0.888672 1.39913 1.02493 1.15658 1.26748C0.914032 1.51003 0.777771 1.83899 0.777771 2.18201V11.2318H2.0711V2.18201H9.82844V0.888672Z"
        fill="#7F7F7F" />
    </symbol>
    <symbol id="check-circle" viewBox="0 0 24 24">
      <path
        d="M12 2C6.5 2 2 6.5 2 12S6.5 22 12 22 22 17.5 22 12 17.5 2 12 2M10 17L5 12L6.41 10.59L10 14.17L17.59 6.58L19 8L10 17Z" />
    </symbol>
    <symbol id="close-circle" viewBox="0 0 24 24">
      <path
        d="M12,20C7.59,20 4,16.41 4,12C4,7.59 7.59,4 12,4C16.41,4 20,7.59 20,12C20,16.41 16.41,20 12,20M12,2C6.47,2 2,6.47 2,12C2,17.53 6.47,22 12,22C17.53,22 22,17.53 22,12C22,6.47 17.53,2 12,2M14.59,8L12,10.59L9.41,8L8,9.41L10.59,12L8,14.59L9.41,16L12,13.41L14.59,16L16,14.59L13.41,12L16,9.41L14.59,8Z" />
    </symbol>
    <symbol id="server" viewBox="0 0 24 24">
      <path d="M20.578125,13.4648438 C21.5625,14.5820312 22.1582031,16.0488281 22.1582031,17.6542969 C22.1582031,21.1582031 19.3183594,24 15.8125,24 C13.3808594,24 11.2675781,22.6308594 10.203125,20.6230469 L7.31054687,20.6230469 L7.31054687,21.9785156 L2.99414062,21.9785156 L2.99414062,20.6230469 L0.001953125,20.6230469 L0.001953125,19.0488281 L2.99414062,19.0488281 L2.99414062,17.6796875 L4.36523437,17.6796875 L4.36523437,14.5800781 L1.4140625,14.5800781 C1.02539062,14.5800781 0.671875,14.421875 0.416015625,14.1660156 C0.158203125,13.9101562 0,13.5566406 0,13.1679688 L0,8.20117188 C0,7.85546875 0.125,7.53710938 0.333984375,7.29101562 C0.125,7.04492188 0,6.7265625 0,6.37890625 L0,1.4140625 C0,1.02539062 0.158203125,0.671875 0.4140625,0.416015625 C0.669921875,0.158203125 1.0234375,0 1.4140625,0 L19.1992187,0 C19.5878906,0 19.9414062,0.158203125 20.1972656,0.4140625 C20.453125,0.669921875 20.6113281,1.0234375 20.6113281,1.41210938 L20.6113281,6.37890625 C20.6113281,6.72460938 20.484375,7.04296875 20.2773437,7.2890625 C20.4863281,7.53515625 20.6113281,7.85351562 20.6113281,8.19921875 L20.6113281,13.1660156 C20.6113281,13.2675781 20.5996094,13.3671875 20.578125,13.4648438 L20.578125,13.4648438 Z M17.0664062,15.1679688 C17.3574219,14.8730469 17.828125,14.8710938 18.1191406,15.1660156 C18.4101562,15.4589844 18.4121094,15.9355469 18.1210937,16.2304688 L16.8476562,17.5214844 L18.1210937,18.8144531 C18.4082031,19.1074219 18.4042969,19.5800781 18.1132812,19.8710938 C17.8203125,20.1621094 17.3496094,20.1621094 17.0625,19.8691406 L15.796875,18.5859375 L14.5292969,19.8710938 C14.2382812,20.1660156 13.7675781,20.1679687 13.4765625,19.8730469 C13.1855469,19.5800781 13.1835937,19.1035156 13.4746094,18.8085938 L14.7480469,17.5175781 L13.4746094,16.2246094 C13.1875,15.9316406 13.1914062,15.4589844 13.4824219,15.1679688 C13.7753906,14.8769531 14.2460937,14.8769531 14.5332031,15.1699219 L15.7988281,16.453125 L17.0664062,15.1679688 L17.0664062,15.1679688 Z M9.62304687,19.0488281 C9.52148437,18.5996094 9.46875,18.1328125 9.46875,17.6542969 C9.46875,16.5390625 9.7578125,15.4902344 10.2617187,14.5800781 L5.9375,14.5800781 L5.9375,17.6816406 L7.30859375,17.6816406 L7.30859375,19.0507812 L9.62304687,19.0507812 L9.62304687,19.0488281 Z M5.15234375,18.8496094 C5.69335937,18.8496094 6.1328125,19.2890625 6.1328125,19.8300781 C6.1328125,20.3710937 5.69335937,20.8105469 5.15234375,20.8105469 C4.61132812,20.8105469 4.171875,20.3710937 4.171875,19.8300781 C4.171875,19.2890625 4.609375,18.8496094 5.15234375,18.8496094 L5.15234375,18.8496094 Z M2.76757812,2.54492188 L3.8125,2.54492188 L3.8125,5.25 L2.76757812,5.25 L2.76757812,2.54492188 L2.76757812,2.54492188 Z M17.1269531,9.85546875 C17.5839844,9.85546875 17.9550781,10.2265625 17.9550781,10.6835937 C17.9550781,11.0742187 17.6855469,11.4003906 17.3222656,11.4882812 C17.6503906,11.5683594 17.96875,11.6738281 18.2753906,11.8027344 C18.7539062,12.0039062 19.203125,12.2597656 19.6152344,12.5664062 L19.6152344,8.20117187 C19.6152344,8.08789062 19.5683594,7.98242187 19.4921875,7.90820312 C19.4335937,7.84960937 19.3574219,7.80859375 19.2734375,7.79296875 C19.2480469,7.79492187 19.2226562,7.79492187 19.1992187,7.79492187 L1.4140625,7.79492187 C1.38867187,7.79492187 1.36328125,7.79492187 1.33984375,7.79296875 C1.25585938,7.80859375 1.1796875,7.84960937 1.12109375,7.90820312 C1.04296875,7.98242187 0.99609375,8.0859375 0.99609375,8.20117187 L0.99609375,13.1679687 C0.99609375,13.28125 1.04296875,13.3867188 1.11914062,13.4609375 C1.1953125,13.5371094 1.29882812,13.5839844 1.41210937,13.5839844 L10.8984375,13.5839844 C11.4726562,12.9042969 12.1835937,12.3457031 12.9882812,11.953125 C13.8378906,11.5390625 14.7910156,11.3066406 15.7988281,11.3066406 C16.0878906,11.3066406 16.3730469,11.3261719 16.6523437,11.3632812 C16.4375,11.2128906 16.2988281,10.9648437 16.2988281,10.6835937 C16.2988281,10.2265625 16.6699219,9.85546875 17.1269531,9.85546875 L17.1269531,9.85546875 Z M13.9726562,9.85546875 C14.4296875,9.85546875 14.8007812,10.2265625 14.8007812,10.6835938 C14.8007812,11.140625 14.4296875,11.5117188 13.9726562,11.5117188 C13.515625,11.5117188 13.1445312,11.140625 13.1445312,10.6835938 C13.1445312,10.2265625 13.515625,9.85546875 13.9726562,9.85546875 L13.9726562,9.85546875 Z M8.54492187,9.33203125 L9.58984375,9.33203125 L9.58984375,12.0371094 L8.54492187,12.0371094 L8.54492187,9.33203125 L8.54492187,9.33203125 Z M5.65625,9.33203125 L6.70117187,9.33203125 L6.70117187,12.0371094 L5.65625,12.0371094 L5.65625,9.33203125 L5.65625,9.33203125 Z M2.76757812,9.33203125 L3.8125,9.33203125 L3.8125,12.0371094 L2.76757812,12.0371094 L2.76757812,9.33203125 L2.76757812,9.33203125 Z M17.1269531,3.06835938 C17.5839844,3.06835938 17.9550781,3.43945312 17.9550781,3.89648438 C17.9550781,4.35351563 17.5839844,4.72460938 17.1269531,4.72460938 C16.6699219,4.72460938 16.2988281,4.35351563 16.2988281,3.89648438 C16.2988281,3.43945312 16.6699219,3.06835938 17.1269531,3.06835938 L17.1269531,3.06835938 Z M13.9726562,3.06835938 C14.4296875,3.06835938 14.8007812,3.43945312 14.8007812,3.89648438 C14.8007812,4.35351563 14.4296875,4.72460938 13.9726562,4.72460938 C13.515625,4.72460938 13.1445312,4.35351563 13.1445312,3.89648438 C13.1445312,3.43945312 13.515625,3.06835938 13.9726562,3.06835938 L13.9726562,3.06835938 Z M8.54492187,2.54492188 L9.58984375,2.54492188 L9.58984375,5.25 L8.54492187,5.25 L8.54492187,2.54492188 L8.54492187,2.54492188 Z M5.65625,2.54492188 L6.70117187,2.54492188 L6.70117187,5.25 L5.65625,5.25 L5.65625,2.54492188 L5.65625,2.54492188 Z M1.33789062,6.7890625 C1.36328125,6.78710938 1.38867187,6.78710938 1.41210937,6.78710938 L19.1972656,6.78710938 C19.2226562,6.78710938 19.2480469,6.78710938 19.2714844,6.7890625 C19.3554687,6.7734375 19.4316406,6.73242188 19.4902344,6.67382812 C19.5664062,6.59765625 19.6132812,6.49414062 19.6132812,6.38085937 L19.6132812,1.4140625 C19.6132812,1.30078125 19.5664062,1.1953125 19.4902344,1.11914062 C19.4140625,1.04296875 19.3105469,0.99609375 19.1972656,0.99609375 L1.4140625,0.99609375 C1.30078125,0.99609375 1.1953125,1.04296875 1.11914062,1.11914062 C1.04296875,1.1953125 0.99609375,1.29882812 0.99609375,1.4140625 L0.99609375,6.38085938 C0.99609375,6.49414062 1.04296875,6.59960938 1.11914062,6.67382813 C1.17773438,6.73242188 1.25390625,6.7734375 1.33789062,6.7890625 L1.33789062,6.7890625 Z M19.1328125,13.4472656 C18.7558594,13.1542969 18.3398437,12.9082031 17.8945312,12.7207031 C17.2519531,12.4511719 16.5429687,12.3027344 15.8007812,12.3027344 C15.3378906,12.3027344 14.8886719,12.3613281 14.4589844,12.4707031 C12.15625,13.0722656 10.4570312,15.1660156 10.4570312,17.65625 C10.4570312,20.6152344 12.8554687,23.015625 15.8164062,23.015625 C18.7773437,23.015625 21.1757812,20.6171875 21.1757812,17.65625 C21.171875,15.9492188 20.375,14.4296875 19.1328125,13.4472656 L19.1328125,13.4472656 Z" transform="translate(1)"/>
    </symbol>
    <symbol id="error" viewBox="0 0 24 24">
      <path d="M22.375,2 C23.2695312,2 24,2.72274207 24,3.60781123 L24,19.3921888 C24,20.2753255 23.2695312,21 22.375,21 L1.625,21 C0.73046875,20.9980675 0,20.2753255 0,19.3902563 L0,3.60781123 C0,2.72274207 0.73046875,2 1.625,2 L22.375,2 Z M23.0332031,6.50071196 L1.03320312,6.50071196 L1.03320312,19.546786 C1.03320312,19.6704638 1.08203125,19.7786819 1.1640625,19.8617779 C1.24609375,19.9448739 1.35742187,19.9912531 1.48242187,19.9912531 L22.5839844,19.9912531 C22.7089844,19.9912531 22.8183594,19.9429414 22.9023437,19.8617779 C22.9863281,19.7786819 23.0332031,19.6704638 23.0332031,19.546786 L23.0332031,6.50071196 Z M12.3170274,9.98177115 L16.728674,17.0024778 C16.8623602,17.2134668 16.9769485,17.6470588 16.728674,17.6470588 L7.27132601,17.6470588 C7.02305153,17.6470588 7.13763975,17.2134668 7.27132601,17.0024778 L11.6810628,9.98177115 C11.814749,9.77078217 12.185251,9.77078217 12.3170274,9.98177115 Z M12.3819607,15.7849359 L11.6142197,15.7849359 L11.6142197,16.4740375 L12.3819607,16.4740375 L12.3819607,15.7849359 Z M12,12.1884449 C11.6562353,12.1884449 11.377404,12.471054 11.377404,12.8194761 C11.377404,13.7640873 11.5378275,14.3641477 11.6142197,15.3087589 L12.3819607,15.3087589 C12.4602627,14.3641477 12.622596,13.7621517 12.622596,12.8194761 C12.622596,12.471054 12.3437647,12.1884449 12,12.1884449 Z M20.828125,3.80685517 C20.3867187,3.80685517 20.0273437,4.1624288 20.0253906,4.60109845 C20.0253906,5.0397681 20.3847656,5.39534174 20.828125,5.39534174 C21.2714844,5.39534174 21.6308594,5.0397681 21.6308594,4.60109845 C21.6308594,4.1624288 21.2714844,3.80685517 20.828125,3.80685517 Z M15.390625,3.80685517 C14.9472656,3.80685517 14.5878906,4.1624288 14.5878906,4.60109845 C14.5878906,5.0397681 14.9472656,5.39534174 15.390625,5.39534174 C15.8339844,5.39534174 16.1933594,5.0397681 16.1933594,4.60109845 C16.1933594,4.1624288 15.8339844,3.80685517 15.390625,3.80685517 Z M18.109375,3.80685517 C17.6660156,3.80685517 17.3066406,4.1624288 17.3066406,4.60109845 C17.3066406,5.0397681 17.6660156,5.39534174 18.109375,5.39534174 C18.5527344,5.39534174 18.9121094,5.0397681 18.9121094,4.60109845 C18.9121094,4.1624288 18.5527344,3.80685517 18.109375,3.80685517 Z"/>
    </symbol>
    <symbol id="checkbox-checked" viewBox="0 0 24 24">
      <path d="M10,17L5,12L6.41,10.58L10,14.17L17.59,6.58L19,8M19,3H5C3.89,3 3,3.89 3,5V19A2,2 0 0,0 5,21H19A2,2 0 0,0 21,19V5C21,3.89 20.1,3 19,3Z"/>
    </symbol>
    <symbol id="checkbox-unchecked" viewBox="0 0 24 24">
      <path d="M19,3H5C3.89,3 3,3.89 3,5V19A2,2 0 0,0 5,21H19A2,2 0 0,0 21,19V5C21,3.89 20.1,3 19,3M19,5V19H5V5H19Z"/>
    </symbol>
  </defs>
</svg>